<?xml version="1.0" encoding="UTF-8"?>
<svg xmlns="http://www.w3.org/2000/svg" xmlns:xlink="http://www.w3.org/1999/xlink" width="50px" height="50px" viewBox="0 0 50 50" version="1.1">
<g id="surface1">
<path style=" stroke:none;fill-rule:evenodd;fill:rgb(98.431373%,73.725492%,1.960784%);fill-opacity:1;" d="M 10.757812 25 C 10.757812 23.414062 11.019531 21.890625 11.492188 20.460938 L 3.253906 14.171875 C 1.648438 17.429688 0.742188 21.105469 0.742188 25 C 0.742188 28.890625 1.648438 32.5625 3.25 35.820312 L 11.484375 29.519531 C 11.019531 28.097656 10.757812 26.578125 10.757812 25 "/>
<path style=" stroke:none;fill-rule:evenodd;fill:rgb(92.156863%,26.274511%,20.784314%);fill-opacity:1;" d="M 25.222656 10.554688 C 28.671875 10.554688 31.789062 11.777344 34.234375 13.777344 L 41.355469 6.667969 C 37.015625 2.890625 31.453125 0.554688 25.222656 0.554688 C 15.546875 0.554688 7.234375 6.085938 3.253906 14.171875 L 11.492188 20.460938 C 13.390625 14.699219 18.800781 10.554688 25.222656 10.554688 "/>
<path style=" stroke:none;fill-rule:evenodd;fill:rgb(20.392157%,65.882355%,32.549021%);fill-opacity:1;" d="M 25.222656 39.445312 C 18.800781 39.445312 13.390625 35.300781 11.492188 29.539062 L 3.253906 35.828125 C 7.234375 43.914062 15.546875 49.445312 25.222656 49.445312 C 31.191406 49.445312 36.894531 47.324219 41.171875 43.351562 L 33.351562 37.308594 C 31.144531 38.695312 28.367188 39.445312 25.222656 39.445312 "/>
<path style=" stroke:none;fill-rule:evenodd;fill:rgb(25.882354%,52.156866%,95.686275%);fill-opacity:1;" d="M 48.589844 25 C 48.589844 23.554688 48.367188 22 48.03125 20.554688 L 25.222656 20.554688 L 25.222656 30 L 38.351562 30 C 37.695312 33.21875 35.910156 35.695312 33.351562 37.308594 L 41.171875 43.351562 C 45.664062 39.179688 48.589844 32.96875 48.589844 25 "/>
</g>
</svg>
